<?xml version="1.0" encoding="UTF-8" standalone="no"?>
<svg
   xmlns:dc="http://purl.org/dc/elements/1.1/"
   xmlns:cc="http://creativecommons.org/ns#"
   xmlns:rdf="http://www.w3.org/1999/02/22-rdf-syntax-ns#"
   xmlns:svg="http://www.w3.org/2000/svg"
   xmlns="http://www.w3.org/2000/svg"
   xmlns:xlink="http://www.w3.org/1999/xlink"
   xmlns:sodipodi="http://sodipodi.sourceforge.net/DTD/sodipodi-0.dtd"
   xmlns:inkscape="http://www.inkscape.org/namespaces/inkscape"
   width="400"
   height="100"
   viewBox="0 0 105.83333 26.458334"
   version="1.1"
   id="svg839"
   inkscape:version="1.0.2 (e86c870879, 2021-01-15)"
   sodipodi:docname="fulllogo.svg"
   inkscape:export-filename="/home/jascha/Schreibtisch/fulllogo.png"
   inkscape:export-xdpi="96"
   inkscape:export-ydpi="96">
  <defs
     id="defs833">
    <linearGradient
       id="linearGradient3821">
      <stop
         style="stop-color:#1e761b;stop-opacity:1;"
         offset="0"
         id="stop3823" />
      <stop
         style="stop-color:#42ac1f;stop-opacity:1;"
         offset="1"
         id="stop3826" />
    </linearGradient>
    <linearGradient
       id="linearGradient3813">
      <stop
         style="stop-color:#93ff42;stop-opacity:1;"
         offset="0"
         id="stop3815" />
      <stop
         style="stop-color:#2c9e19;stop-opacity:1;"
         offset="1"
         id="stop3817" />
    </linearGradient>
    <linearGradient
       id="linearGradient3784">
      <stop
         style="stop-color:#646464;stop-opacity:1;"
         offset="0"
         id="stop3786" />
      <stop
         style="stop-color:#8c8c8c;stop-opacity:1;"
         offset="1"
         id="stop3788" />
    </linearGradient>
    <linearGradient
       id="linearGradient3776">
      <stop
         style="stop-color:#fafafa;stop-opacity:1;"
         offset="0"
         id="stop3778" />
      <stop
         style="stop-color:#c8c8c8;stop-opacity:1;"
         offset="1"
         id="stop3780" />
    </linearGradient>
    <linearGradient
       id="linearGradient3817">
      <stop
         style="stop-color:#ffffff;stop-opacity:1;"
         offset="0"
         id="stop3819" />
      <stop
         id="stop3827"
         offset="0.05455951"
         style="stop-color:#ffffff;stop-opacity:0.23529412;" />
      <stop
         id="stop3825"
         offset="0.95526141"
         style="stop-color:#ffffff;stop-opacity:0.15686275;" />
      <stop
         style="stop-color:#ffffff;stop-opacity:0.39215687;"
         offset="1"
         id="stop3821" />
    </linearGradient>
    <radialGradient
       cx="4.9929786"
       cy="43.5"
       r="2.5"
       fx="4.9929786"
       fy="43.5"
       id="radialGradient2873-966-168"
       xlink:href="#linearGradient3688-166-749"
       gradientUnits="userSpaceOnUse"
       gradientTransform="matrix(2.003784,0,0,1.4,27.98813,-17.4)" />
    <linearGradient
       id="linearGradient3688-166-749">
      <stop
         id="stop2883"
         style="stop-color:#181818;stop-opacity:1"
         offset="0" />
      <stop
         id="stop2885"
         style="stop-color:#181818;stop-opacity:0"
         offset="1" />
    </linearGradient>
    <radialGradient
       cx="4.9929786"
       cy="43.5"
       r="2.5"
       fx="4.9929786"
       fy="43.5"
       id="radialGradient2875-742-326"
       xlink:href="#linearGradient3688-166-749"
       gradientUnits="userSpaceOnUse"
       gradientTransform="matrix(2.003784,0,0,1.4,-20.01187,-104.4)" />
    <linearGradient
       x1="25.058096"
       y1="47.027729"
       x2="25.058096"
       y2="39.999443"
       id="linearGradient2877-634-617"
       xlink:href="#linearGradient3702-501-757"
       gradientUnits="userSpaceOnUse" />
    <linearGradient
       id="linearGradient3702-501-757">
      <stop
         id="stop2895"
         style="stop-color:#181818;stop-opacity:0"
         offset="0" />
      <stop
         id="stop2897"
         style="stop-color:#181818;stop-opacity:1"
         offset="0.5" />
      <stop
         id="stop2899"
         style="stop-color:#181818;stop-opacity:0"
         offset="1" />
    </linearGradient>
    <linearGradient
       inkscape:collect="always"
       xlink:href="#linearGradient3817"
       id="linearGradient3823"
       x1="47.214287"
       y1="965.25507"
       x2="47.214287"
       y2="1042.9185"
       gradientUnits="userSpaceOnUse" />
    <radialGradient
       inkscape:collect="always"
       xlink:href="#linearGradient3776"
       id="radialGradient3782"
       cx="48.357143"
       cy="972.93353"
       fx="48.357143"
       fy="972.93353"
       r="40"
       gradientUnits="userSpaceOnUse"
       gradientTransform="matrix(9.1992568e-7,2.1785165,-1.7412775,7.3529206e-7,1742.5044,867.58604)" />
    <linearGradient
       inkscape:collect="always"
       xlink:href="#linearGradient3784"
       id="linearGradient3790"
       x1="25.5"
       y1="1043.6552"
       x2="25.5"
       y2="965.07648"
       gradientUnits="userSpaceOnUse" />
    <linearGradient
       inkscape:collect="always"
       xlink:href="#linearGradient3817"
       id="linearGradient3803"
       x1="19.714285"
       y1="965.61218"
       x2="19.714285"
       y2="1043.2908"
       gradientUnits="userSpaceOnUse" />
    <radialGradient
       inkscape:collect="always"
       xlink:href="#linearGradient3813"
       id="radialGradient3819"
       cx="19.535715"
       cy="995.0318"
       fx="19.535715"
       fy="995.0318"
       r="11"
       gradientTransform="matrix(8.9921391e-7,6.9968015,-4.5454844,5.841759e-7,4542.4372,833.74531)"
       gradientUnits="userSpaceOnUse" />
    <linearGradient
       inkscape:collect="always"
       xlink:href="#linearGradient3821"
       id="linearGradient3828"
       x1="12.857142"
       y1="1042.5765"
       x2="12.857142"
       y2="964.36218"
       gradientUnits="userSpaceOnUse" />
  </defs>
  <sodipodi:namedview
     id="base"
     pagecolor="#ffffff"
     bordercolor="#666666"
     borderopacity="1.0"
     inkscape:pageopacity="0.0"
     inkscape:pageshadow="2"
     inkscape:zoom="1.9790731"
     inkscape:cx="133.77643"
     inkscape:cy="72.687128"
     inkscape:document-units="mm"
     inkscape:current-layer="layer1"
     inkscape:document-rotation="0"
     showgrid="false"
     units="px"
     inkscape:window-width="1530"
     inkscape:window-height="1007"
     inkscape:window-x="386"
     inkscape:window-y="43"
     inkscape:window-maximized="0" />
  <metadata
     id="metadata836">
    <rdf:RDF>
      <cc:Work
         rdf:about="">
        <dc:format>image/svg+xml</dc:format>
        <dc:type
           rdf:resource="http://purl.org/dc/dcmitype/StillImage" />
        <dc:title></dc:title>
      </cc:Work>
    </rdf:RDF>
  </metadata>
  <g
     inkscape:label="Ebene 1"
     inkscape:groupmode="layer"
     id="layer1">
    <g
       inkscape:label="Livello 1"
       id="layer1-6"
       transform="matrix(0.26458333,0,0,0.26458333,11.053488,-252.83808)">
      <g
         style="display:inline"
         id="g2036"
         transform="matrix(2.1999991,0,0,0.88888944,-4.8000008,1006.5844)">
        <g
           style="opacity:0.4"
           id="g3712"
           transform="matrix(1.052632,0,0,1.285713,-1.263158,-13.42854)">
          <rect
             style="fill:url(#radialGradient2873-966-168);fill-opacity:1;stroke:none"
             id="rect2801"
             y="40"
             x="38"
             height="7"
             width="5" />
          <rect
             style="fill:url(#radialGradient2875-742-326);fill-opacity:1;stroke:none"
             id="rect3696"
             transform="scale(-1)"
             y="-47"
             x="-10"
             height="7"
             width="5" />
          <rect
             style="fill:url(#linearGradient2877-634-617);fill-opacity:1;stroke:none"
             id="rect3700"
             y="40"
             x="10"
             height="7.0000005"
             width="28" />
        </g>
      </g>
      <rect
         style="fill:url(#radialGradient3782);fill-opacity:1;stroke:url(#linearGradient3790);stroke-opacity:1"
         id="rect2985"
         width="79"
         height="79"
         x="8.5"
         y="964.86218"
         rx="3"
         ry="3" />
      <rect
         ry="2"
         rx="2"
         y="965.86218"
         x="9.5"
         height="77"
         width="77"
         id="rect3815"
         style="opacity:0.5;fill:none;stroke:url(#linearGradient3823);stroke-opacity:1" />
      <path
         style="fill:url(#radialGradient3819);fill-opacity:1;stroke:url(#linearGradient3828);stroke-opacity:1"
         d="m 11.5,964.86218 h 18 v 79.00002 h -18 c -1.662,0 -3,-1.338 -3,-3 v -73.00002 c 0,-1.662 1.338,-3 3,-3 z"
         id="rect3792"
         inkscape:connector-curvature="0"
         sodipodi:nodetypes="sccssss" />
      <path
         sodipodi:nodetypes="sccssss"
         inkscape:connector-curvature="0"
         id="path3795"
         d="m 12,965.86218 h 16.5 v 77.00002 H 12 c -1.662,0 -2.5,-0.838 -2.5,-2.5 v -72.00002 c 0,-1.662 0.838,-2.5 2.5,-2.5 z"
         style="opacity:0.3;fill:none;fill-opacity:1;stroke:url(#linearGradient3803);stroke-opacity:1" />
      <rect
         style="opacity:0.3;fill:#ffffff;fill-opacity:1;stroke:none"
         id="rect3830"
         width="1"
         height="78"
         x="30"
         y="965.36218" />
      <path
         inkscape:connector-curvature="0"
         id="path3859"
         d="m 14,969.86218 v 2 2 2 2 h 2 2 v -2 h -2 v -2 -2 h 2 2 v 2 h 2 v -2 -2 h -2 -2 -2 z m 8,6 v 2 h -2 v 2 h 2 2 v -2 -2 z"
         style="opacity:0.2;fill:#ffffff;fill-opacity:1;stroke:none" />
      <path
         style="fill:#3ca31e;fill-opacity:1;stroke:none"
         d="m 14,969.36218 v 2 2 2 2 h 2 2 v -2 h -2 v -2 -2 h 2 2 v 2 h 2 v -2 -2 h -2 -2 -2 z m 8,6 v 2 h -2 v 2 h 2 2 v -2 -2 z"
         id="rect3832"
         inkscape:connector-curvature="0" />
      <path
         style="opacity:0.5;fill:#ffffff;fill-opacity:1;stroke:none"
         d="m 35,972.86218 v 1 3 1 3 1 3 1 3 1 3 1 3 1 3.00002 1 3 1 3 1 3 1 3 1 3 1 3 1 3 1 3 1 3 1 h 32 1 13 1 V 972.86218 H 81 68 67 Z m 1,1 h 5 v 3 h -5 z m 6,0 h 11 v 3 H 42 Z m 12,0 h 13 v 3 H 54 Z m 14,0 h 13 v 3 H 68 Z m -32,4 h 5 v 3 h -5 z m 6,0 h 11 v 3 H 42 Z m 12,0 h 13 v 3 H 54 Z m 14,0 h 13 v 3 H 68 Z m -32,4 h 5 v 3 h -5 z m 6,0 h 11 v 3 H 42 Z m 12,0 h 13 v 3 H 54 Z m 14,0 h 13 v 3 H 68 Z m -32,4 h 5 v 3 h -5 z m 6,0 h 11 v 3 H 42 Z m 12,0 h 13 v 3 H 54 Z m 14,0 h 13 v 3 H 68 Z m -32,4 h 5 v 3 h -5 z m 6,0 h 11 v 3 H 42 Z m 12,0 h 13 v 3 H 54 Z m 14,0 h 13 v 3 H 68 Z m -32,4 h 5 v 3 h -5 z m 6,0 h 11 v 3 H 42 Z m 12,0 h 13 v 3 H 54 Z m 14,0 h 13 v 3 H 68 Z m -32,4 h 5 v 3.00002 h -5 z m 6,0 h 11 v 3.00002 H 42 Z m 12,0 h 13 v 3.00002 H 54 Z m 14,0 h 13 v 3.00002 H 68 Z m -32,4.00002 h 5 v 3 h -5 z m 6,0 h 11 v 3 H 42 Z m 12,0 h 13 v 3 H 54 Z m 14,0 h 13 v 3 H 68 Z m -32,4 h 5 v 3 h -5 z m 6,0 h 11 v 3 H 42 Z m 12,0 h 13 v 3 H 54 Z m 14,0 h 13 v 3 H 68 Z m -32,4 h 5 v 3 h -5 z m 6,0 h 11 v 3 H 42 Z m 12,0 h 13 v 3 H 54 Z m 14,0 h 13 v 3 H 68 Z m -32,4 h 5 v 3 h -5 z m 6,0 h 11 v 3 H 42 Z m 12,0 h 13 v 3 H 54 Z m 14,0 h 13 v 3 H 68 Z m -32,4 h 5 v 3 h -5 z m 6,0 h 11 v 3 H 42 Z m 12,0 h 13 v 3 H 54 Z m 14,0 h 13 v 3 H 68 Z m -32,4 h 5 v 3 h -5 z m 6,0 h 11 v 3 H 42 Z m 12,0 h 13 v 3 H 54 Z m 14,0 h 13 v 3 H 68 Z m -32,4 h 5 v 3 h -5 z m 6,0 h 11 v 3 H 42 Z m 12,0 h 13 v 3 H 54 Z m 14,0 h 13 v 3 H 68 Z m -32,4 h 5 v 3 h -5 z m 6,0 h 11 v 3 H 42 Z m 12,0 h 13 v 3 H 54 Z m 14,0 h 13 v 3 H 68 Z m -32,4 h 5 v 3 h -5 z m 6,0 h 11 v 3 H 42 Z m 12,0 h 13 v 3 H 54 Z m 14,0 h 13 v 3 H 68 Z"
         id="rect4012"
         inkscape:connector-curvature="0" />
      <rect
         style="fill:#8c8c8c;fill-opacity:1;stroke:none"
         id="rect3835"
         width="45.999985"
         height="1"
         x="35"
         y="972.36218" />
      <rect
         y="980.36218"
         x="35"
         height="1"
         width="45.999985"
         id="rect3837"
         style="fill:#8c8c8c;fill-opacity:1;stroke:none" />
      <rect
         style="fill:#8c8c8c;fill-opacity:1;stroke:none"
         id="rect3839"
         width="45.999985"
         height="1"
         x="35"
         y="988.36218" />
      <rect
         y="996.36218"
         x="35"
         height="1"
         width="45.999985"
         id="rect3841"
         style="fill:#8c8c8c;fill-opacity:1;stroke:none" />
      <rect
         style="fill:#8c8c8c;fill-opacity:1;stroke:none"
         id="rect3843"
         width="45.999985"
         height="1"
         x="35"
         y="1004.3622" />
      <rect
         y="1012.3622"
         x="35"
         height="1"
         width="45.999985"
         id="rect3845"
         style="fill:#8c8c8c;fill-opacity:1;stroke:none" />
      <rect
         style="fill:#8c8c8c;fill-opacity:1;stroke:none"
         id="rect3847"
         width="45.999985"
         height="1"
         x="35"
         y="1020.3622" />
      <rect
         y="1028.3622"
         x="35"
         height="1"
         width="45.999985"
         id="rect3849"
         style="fill:#8c8c8c;fill-opacity:1;stroke:none" />
      <rect
         style="fill:#8c8c8c;fill-opacity:1;stroke:none"
         id="rect3851"
         width="45.999985"
         height="1"
         x="35"
         y="1036.3622" />
      <rect
         style="fill:#8c8c8c;fill-opacity:1;stroke:none"
         id="rect3853"
         width="64.999969"
         height="1"
         x="-1037.3619"
         y="35"
         transform="rotate(-90)" />
      <rect
         transform="rotate(-90)"
         y="41"
         x="-1037.3619"
         height="1"
         width="64.999969"
         id="rect3855"
         style="fill:#8c8c8c;fill-opacity:1;stroke:none" />
      <rect
         transform="rotate(-90)"
         y="81"
         x="-1037.3619"
         height="1"
         width="64.999969"
         id="rect3859"
         style="fill:#8c8c8c;fill-opacity:1;stroke:none" />
      <rect
         style="fill:#8c8c8c;fill-opacity:1;stroke:none"
         id="rect3903"
         width="45.999985"
         height="1"
         x="35"
         y="976.36218" />
      <rect
         y="984.36218"
         x="35"
         height="1"
         width="45.999985"
         id="rect3905"
         style="fill:#8c8c8c;fill-opacity:1;stroke:none" />
      <rect
         style="fill:#8c8c8c;fill-opacity:1;stroke:none"
         id="rect3907"
         width="45.999985"
         height="1"
         x="35"
         y="992.36218" />
      <rect
         y="1000.3622"
         x="35"
         height="1"
         width="45.999985"
         id="rect3909"
         style="fill:#8c8c8c;fill-opacity:1;stroke:none" />
      <rect
         style="fill:#8c8c8c;fill-opacity:1;stroke:none"
         id="rect3911"
         width="45.999985"
         height="1"
         x="35"
         y="1008.3622" />
      <rect
         y="1016.3622"
         x="35"
         height="1"
         width="45.999985"
         id="rect3913"
         style="fill:#8c8c8c;fill-opacity:1;stroke:none" />
      <rect
         style="fill:#8c8c8c;fill-opacity:1;stroke:none"
         id="rect3915"
         width="45.999985"
         height="1"
         x="35"
         y="1024.3622" />
      <rect
         y="1032.3622"
         x="35"
         height="1"
         width="45.999985"
         id="rect3917"
         style="fill:#8c8c8c;fill-opacity:1;stroke:none" />
      <rect
         style="fill:#8c8c8c;fill-opacity:1;stroke:none"
         id="rect3919"
         width="64.999969"
         height="1"
         x="-1037.3619"
         y="53"
         transform="rotate(-90)" />
      <rect
         transform="rotate(-90)"
         y="67"
         x="-1037.3619"
         height="1"
         width="64.999969"
         id="rect3921"
         style="fill:#8c8c8c;fill-opacity:1;stroke:none" />
      <rect
         style="fill:#b4b4b4;fill-opacity:1;stroke:none"
         id="rect3925"
         width="5"
         height="3"
         x="36"
         y="973.36218" />
      <rect
         y="977.36218"
         x="36"
         height="3"
         width="5"
         id="rect3927"
         style="fill:#b4b4b4;fill-opacity:1;stroke:none" />
      <rect
         style="fill:#b4b4b4;fill-opacity:1;stroke:none"
         id="rect3929"
         width="5"
         height="3"
         x="36"
         y="981.36218" />
      <rect
         y="985.36218"
         x="36"
         height="3"
         width="5"
         id="rect3931"
         style="fill:#b4b4b4;fill-opacity:1;stroke:none" />
      <rect
         style="fill:#b4b4b4;fill-opacity:1;stroke:none"
         id="rect3933"
         width="5"
         height="3"
         x="36"
         y="989.36218" />
      <rect
         y="993.36218"
         x="36"
         height="3"
         width="5"
         id="rect3935"
         style="fill:#b4b4b4;fill-opacity:1;stroke:none" />
      <rect
         style="fill:#b4b4b4;fill-opacity:1;stroke:none"
         id="rect3937"
         width="5"
         height="3"
         x="36"
         y="997.36218" />
      <rect
         y="1001.3622"
         x="36"
         height="3"
         width="5"
         id="rect3939"
         style="fill:#b4b4b4;fill-opacity:1;stroke:none" />
      <rect
         style="fill:#b4b4b4;fill-opacity:1;stroke:none"
         id="rect3941"
         width="5"
         height="3"
         x="36"
         y="1005.3622" />
      <rect
         y="1009.3622"
         x="36"
         height="3"
         width="5"
         id="rect3943"
         style="fill:#b4b4b4;fill-opacity:1;stroke:none" />
      <rect
         style="fill:#b4b4b4;fill-opacity:1;stroke:none"
         id="rect3945"
         width="5"
         height="3"
         x="36"
         y="1013.3622" />
      <rect
         y="1017.3622"
         x="36"
         height="3"
         width="5"
         id="rect3947"
         style="fill:#b4b4b4;fill-opacity:1;stroke:none" />
      <rect
         style="fill:#b4b4b4;fill-opacity:1;stroke:none"
         id="rect3949"
         width="5"
         height="3"
         x="36"
         y="1021.3622" />
      <rect
         y="1025.3622"
         x="36"
         height="3"
         width="5"
         id="rect3951"
         style="fill:#b4b4b4;fill-opacity:1;stroke:none" />
      <rect
         style="fill:#b4b4b4;fill-opacity:1;stroke:none"
         id="rect3953"
         width="5"
         height="3"
         x="36"
         y="1029.3622" />
      <rect
         y="1033.3622"
         x="36"
         height="3"
         width="5"
         id="rect3955"
         style="fill:#b4b4b4;fill-opacity:1;stroke:none" />
      <rect
         y="973.36218"
         x="42"
         height="3"
         width="11.000009"
         id="rect3957"
         style="fill:#b4b4b4;fill-opacity:1;stroke:none" />
      <rect
         style="fill:#b4b4b4;fill-opacity:1;stroke:none"
         id="rect3959"
         width="13.000004"
         height="3"
         x="54"
         y="973.36218" />
      <rect
         y="973.36218"
         x="68"
         height="3"
         width="13.000004"
         id="rect3961"
         style="fill:#b4b4b4;fill-opacity:1;stroke:none" />
      <rect
         style="fill:#69d731;fill-opacity:1;stroke:none"
         id="rect3963"
         width="13.000004"
         height="3"
         x="68"
         y="981.36218" />
    </g>
    <path
       class="qrline"
       stroke="#000000"
       d="m 62.703541,1.7536757 h 5.730867 m 0.818696,0 h 0.818695 m 1.637391,0 h 1.63739 m 1.637391,0 h 3.274781 m 2.456086,0 h 5.730868 M 62.703541,2.5723713 h 0.818695 m 4.093477,0 h 0.818695 m 1.637391,0 h 1.637391 m 1.63739,0 h 1.637391 m 0.818695,0 h 0.818696 m 4.093476,0 h 0.818696 m 4.093477,0 h 0.818695 M 62.703541,3.3910662 h 0.818695 m 0.818696,0 h 2.456086 m 0.818695,0 h 0.818695 m 0.818696,0 h 2.456086 m 0.818695,0 h 0.818695 m 0.818696,0 h 3.274781 m 1.637391,0 h 0.818695 m 0.818695,0 h 0.818696 m 0.818696,0 h 2.456086 m 0.818695,0 h 0.818695 M 62.703541,4.2097618 h 0.818695 m 0.818696,0 h 2.456086 m 0.818695,0 h 0.818695 m 2.456086,0 h 0.818696 m 0.818695,0 h 0.818695 m 0.818696,0 h 0.818695 m 1.637391,0 h 2.456086 m 1.63739,0 h 0.818696 m 0.818696,0 h 2.456086 m 0.818695,0 h 0.818695 M 62.703541,5.0284573 h 0.818695 m 0.818696,0 h 2.456086 m 0.818695,0 h 0.818695 m 4.912172,0 h 2.456086 m 0.818696,0 h 0.818695 m 0.818695,0 h 0.818696 m 1.63739,0 h 0.818696 m 0.818696,0 h 2.456086 m 0.818695,0 h 0.818695 M 62.703541,5.8471525 h 0.818695 m 4.093477,0 h 0.818695 m 0.818696,0 h 2.456086 m 0.818695,0 h 0.818695 m 1.637391,0 h 0.818695 m 0.818696,0 h 0.818695 m 3.274781,0 h 0.818696 m 4.093477,0 h 0.818695 M 62.703541,6.6658481 h 5.730867 m 0.818696,0 h 0.818695 m 0.818695,0 h 0.818696 m 0.818695,0 h 0.818695 m 0.818696,0 h 0.818695 m 0.818695,0 h 0.818696 m 0.818695,0 h 0.818695 m 0.818696,0 h 0.818695 m 0.818695,0 h 5.730868 M 70.890494,7.4845437 h 0.818696 m 2.456086,0 h 2.456086 m 0.818695,0 h 0.818695 M 62.703541,8.3032384 h 0.818695 m 0.818696,0 h 0.818695 m 2.456086,0 h 1.637391 m 2.456086,0 h 0.818695 m 0.818695,0 h 1.637391 m 0.818695,0 h 0.818696 m 1.63739,0 h 1.637391 m 1.637391,0 h 0.818696 m 1.63739,0 h 0.818696 m 0.818695,0 h 0.818695 m -22.92347,0.818696 h 0.818696 m 0.818695,0 h 0.818695 m 2.456086,0 h 0.818696 m 1.63739,0 h 1.637391 m 0.818695,0 h 1.637391 m 3.274781,0 h 0.818696 m 1.63739,0 h 1.637392 m 0.818694,0 h 1.637392 m 0.818695,0 h 0.818695 m -23.742165,0.818695 h 2.456086 m 2.456086,0 h 2.456086 m 0.818695,0 h 2.456086 m 1.637391,0 h 1.637391 m 0.818695,0 h 1.637391 m 1.63739,0 h 0.818696 m 0.818696,0 h 0.818694 m 2.456087,0 h 0.818695 M 62.703541,10.759324 h 1.637391 m 1.63739,0 h 0.818696 m 2.456086,0 h 0.818695 m 0.818695,0 h 0.818696 m 1.63739,0 h 0.818696 m 3.274781,0 h 0.818695 m 1.637391,0 h 0.818695 m 0.818696,0 h 0.818696 m 0.818694,0 h 0.818696 m 0.818696,0 h 1.63739 m -22.92347,0.818696 h 0.818696 m 0.818695,0 h 0.818695 m 1.637391,0 h 0.818695 m 0.818696,0 h 0.818695 m 3.274781,0 h 0.818696 m 0.818695,0 h 1.637391 m 4.093476,0 h 1.637392 m 0.818694,0 h 0.818696 m 0.818696,0 h 1.63739 m -22.92347,0.818695 h 0.818696 m 0.818695,0 h 0.818695 m 6.549563,0 h 0.818695 m 3.274782,0 h 0.818695 m 0.818695,0 h 4.093478 m 0.818694,0 h 1.637392 M 62.703541,13.21541 h 1.637391 m 1.63739,0 h 3.274782 m 2.456086,0 h 4.093476 m 0.818696,0 h 3.274781 m 0.818695,0 h 3.274782 m 1.637391,0 h 0.818695 m -22.92347,0.818696 h 1.637391 m 4.912172,0 h 1.637391 m 0.818695,0 h 0.818695 m 0.818696,0 h 1.63739 m 2.456086,0 h 0.818696 m 3.274782,0 h 1.63739 m 0.818696,0 h 0.818695 m -22.92347,0.818695 h 0.818695 m 3.274782,0 h 1.63739 m 1.637391,0 h 2.456086 m 0.818695,0 h 2.456086 m 2.456086,0 h 4.093478 m 2.456086,0 h 0.818695 m -20.467384,0.818695 h 0.818695 m 2.456086,0 h 1.637391 m 0.818695,0 h 0.818696 m 1.63739,0 h 3.274782 m 1.63739,0 h 4.093478 m 0.818694,0 h 0.818696 m 0.818696,0 h 1.63739 m -23.742165,0.818696 h 1.637391 m 0.818695,0 h 1.637391 m 0.818695,0 h 1.637391 m 3.274781,0 h 0.818695 m 1.637391,0 h 0.818695 m 0.818696,0 h 4.912172 m 1.63739,0 h 1.637392 m 0.818695,0 h 0.818695 m -22.104774,0.818696 h 0.818695 m 0.818695,0 h 0.818696 m 1.63739,0 h 0.818696 m 0.818695,0 h 0.818695 m 0.818696,0 h 2.456086 m 3.274781,0 h 0.818695 m 2.456086,0 h 0.818696 m 1.63739,0 h 0.818696 m -21.286079,0.818694 h 1.637391 m 3.274781,0 h 1.637391 m 0.818695,0 h 0.818695 m 1.637391,0 h 1.637391 m 1.63739,0 h 0.818696 m 0.818695,0 h 6.549563 m 0.818696,0 h 1.63739 m -17.192602,0.818696 h 0.818695 m 2.456086,0 h 0.818695 m 1.637391,0 h 1.637391 m 2.456086,0 h 0.818695 m 2.456087,0 h 0.818694 m 1.637392,0 h 1.63739 m -23.742165,0.818696 h 5.730867 m 0.818696,0 h 0.818695 m 2.456086,0 h 5.730867 m 0.818696,0 h 0.818695 m 0.818695,0 h 0.818696 m 0.818696,0 h 0.818694 m 0.818696,0 h 0.818696 m 0.818695,0 h 0.818695 m -23.742165,0.818695 h 0.818695 m 4.093477,0 h 0.818695 m 1.637391,0 h 3.274781 m 0.818696,0 h 1.63739 m 3.274782,0 h 0.818695 m 2.456087,0 h 1.63739 m 0.818696,0 h 0.818695 m -22.92347,0.818695 h 0.818695 m 0.818696,0 h 2.456086 m 0.818695,0 h 0.818695 m 4.093477,0 h 3.274781 m 0.818696,0 h 0.818695 m 0.818695,0 h 5.730868 m 0.818696,0 h 1.63739 M 62.703541,22.22106 h 0.818695 m 0.818696,0 h 2.456086 m 0.818695,0 h 0.818695 m 1.637391,0 h 2.456086 m 0.818695,0 h 3.274782 m 0.818695,0 h 0.818695 m 0.818696,0 h 1.63739 m 0.818696,0 h 1.63739 m 2.456087,0 h 0.818695 m -23.742165,0.818695 h 0.818695 m 0.818696,0 h 2.456086 m 0.818695,0 h 0.818695 m 0.818696,0 h 2.456086 m 3.274781,0 h 0.818695 m 0.818696,0 h 3.274781 m 0.818695,0 h 0.818696 m 0.818696,0 h 0.818694 m 1.637392,0 h 1.63739 M 62.703541,23.85845 h 0.818695 m 4.093477,0 h 0.818695 m 3.274782,0 h 0.818695 m 0.818695,0 h 0.818696 m 4.093476,0 h 0.818696 m 4.093476,0 h 0.818696 m -21.286079,0.818696 h 5.730867 m 0.818696,0 h 0.818695 m 1.637391,0 h 0.818695 m 0.818695,0 h 0.818696 m 0.818695,0 h 1.637391 m 2.456086,0 h 0.818695 m 0.818695,0 h 0.818696 m 0.818696,0 h 0.818694 m 2.456087,0 h 0.818695"
       id="path1587"
       style="stroke-width:0.818697" />
    <text
       xml:space="preserve"
       style="font-style:normal;font-weight:normal;font-size:10.5833px;line-height:1.25;font-family:sans-serif;letter-spacing:0px;word-spacing:0px;fill:#000000;fill-opacity:1;stroke:none;stroke-width:0.264583"
       x="41.18697"
       y="21.268707"
       id="text1600"><tspan
         sodipodi:role="line"
         id="tspan1598"
         x="41.18697"
         y="21.268707"
         style="font-style:normal;font-variant:normal;font-weight:normal;font-stretch:normal;font-size:22.5778px;font-family:IPAPMincho;-inkscape-font-specification:'IPAPMincho, Normal';font-variant-ligatures:normal;font-variant-caps:normal;font-variant-numeric:normal;font-variant-east-asian:normal;stroke-width:0.264583">2</tspan></text>
  </g>
</svg>
